HIERARCHY
ROOT Hips
{
	OFFSET -0.001795 -0.223333 0.028219
	CHANNELS 6 Xposition Yposition Zposition Zrotation Yrotation Xrotation 
	JOINT LeftUpLeg
	{
		OFFSET 0.069520 -0.091406 -0.006815
		CHANNELS 3 Zrotation Yrotation Xrotation
		JOINT LeftLeg
		{
			OFFSET 0.034277 -0.375199 -0.004496
			CHANNELS 3 Zrotation Yrotation Xrotation
			JOINT LeftFoot
			{
				OFFSET -0.013596 -0.397961 -0.043693
				CHANNELS 3 Zrotation Yrotation Xrotation
				JOINT LeftToe
				{
					OFFSET 0.026358 -0.055791 0.119288
					CHANNELS 3 Zrotation Yrotation Xrotation
					End Site
					{
						OFFSET 0.000000 0.000000 0.000000
					}
				}
			}
		}
	}
	JOINT RightUpLeg
	{
		OFFSET -0.067670 -0.090522 -0.004320
		CHANNELS 3 Zrotation Yrotation Xrotation
		JOINT RightLeg
		{
			OFFSET -0.038290 -0.382569 -0.008850
			CHANNELS 3 Zrotation Yrotation Xrotation
			JOINT RightFoot
			{
				OFFSET 0.015774 -0.398415 -0.042312
				CHANNELS 3 Zrotation Yrotation Xrotation
				JOINT RightToe
				{
					OFFSET -0.025372 -0.048144 0.123348
					CHANNELS 3 Zrotation Yrotation Xrotation
					End Site
					{
						OFFSET 0.000000 0.000000 0.000000
					}
				}
			}
		}
	}
	JOINT Spine
	{
		OFFSET -0.002533 0.108963 -0.026696
		CHANNELS 3 Zrotation Yrotation Xrotation
		JOINT Spine1
		{
			OFFSET 0.005487 0.135180 0.001092
			CHANNELS 3 Zrotation Yrotation Xrotation
			JOINT Spine2
			{
				OFFSET 0.001457 0.052922 0.025425
				CHANNELS 3 Zrotation Yrotation Xrotation
				JOINT Neck
				{
					OFFSET -0.002778 0.213870 -0.042857
					CHANNELS 3 Zrotation Yrotation Xrotation
					JOINT Head
					{
						OFFSET 0.005152 0.064970 0.051349
						CHANNELS 3 Zrotation Yrotation Xrotation
						End Site
						{
							OFFSET 0.000000 0.000000 0.000000
						}
					}
				}
				JOINT LeftShoulder
				{
					OFFSET 0.078845 0.121749 -0.034090
					CHANNELS 3 Zrotation Yrotation Xrotation
					JOINT LeftArm
					{
						OFFSET 0.090977 0.030469 -0.008868
						CHANNELS 3 Zrotation Yrotation Xrotation
						JOINT LeftForeArm
						{
							OFFSET 0.259612 -0.012772 -0.027456
							CHANNELS 3 Zrotation Yrotation Xrotation
							JOINT LeftHand
							{
								OFFSET 0.249234 0.008986 -0.001171
								CHANNELS 3 Zrotation Yrotation Xrotation
								End Site
								{
									OFFSET 0.000000 0.000000 0.000000
								}
							}
						}
					}
				}
				JOINT RightShoulder
				{
					OFFSET -0.081759 0.118833 -0.038615
					CHANNELS 3 Zrotation Yrotation Xrotation
					JOINT RightArm
					{
						OFFSET -0.096012 0.032551 -0.009143
						CHANNELS 3 Zrotation Yrotation Xrotation
						JOINT RightForeArm
						{
							OFFSET -0.253742 -0.013329 -0.021401
							CHANNELS 3 Zrotation Yrotation Xrotation
							JOINT RightHand
							{
								OFFSET -0.255298 0.007772 -0.005559
								CHANNELS 3 Zrotation Yrotation Xrotation
								End Site
								{
									OFFSET 0.000000 0.000000 0.000000
								}
							}
						}
					}
				}
			}
		}
	}
}
MOTION
Frames: 6
Frame Time: 0.050000
0.000000 0.835474 0.000000 -2.867286 3.608756 -8.650370 22.301465 0.266550 -4.508417 -6.189842 0.787596 24.488764 6.647386 10.315144 -11.904359 0.000000 0.000000 0.000000 -16.120875 -0.431627 -5.842473 5.425884 -1.093365 26.085748 -3.587003 -2.891914 -15.843565 0.000000 0.000000 0.000000 7.267799 -0.505501 6.096506 -4.775162 1.969807 -21.889133 -2.858877 0.963967 20.643318 8.418203 -4.339441 -15.975319 0.000000 0.000000 0.000000 -9.134737 -17.730290 6.526807 -60.726279 -14.775125 -1.696116 -9.987413 -20.674163 2.623264 0.000000 0.000000 0.000000 17.432623 5.480998 2.730793 63.042277 14.712607 -0.173453 8.270021 24.070803 2.825412 0.000000 0.000000 0.000000 
-0.000934 0.830829 0.003030 -3.179029 2.079379 -7.960526 23.567433 0.391339 -4.373902 -5.853295 0.798306 25.661440 6.902574 11.259415 -12.079745 0.000000 0.000000 0.000000 -16.515748 -0.429484 -7.802707 5.150094 -0.897900 28.608201 -3.248649 -1.091180 -15.760385 0.000000 0.000000 0.000000 8.679723 -0.498826 5.532472 -6.907547 2.392977 -24.427682 -1.344723 0.813388 23.351826 7.783132 -4.338183 -15.022161 0.000000 0.000000 0.000000 -11.878810 -18.718053 7.471358 -58.557215 -16.568398 -1.020904 -10.712774 -16.854245 2.236702 0.000000 0.000000 0.000000 16.732728 6.454146 3.052280 64.007800 14.531874 -0.581758 8.939647 22.769010 2.758338 0.000000 0.000000 0.000000 
-0.001175 0.827571 0.005049 -2.947034 3.737576 -9.087666 23.222753 0.113166 -3.021355 -5.398005 0.503621 25.181361 7.054857 9.801931 -16.167528 0.000000 0.000000 0.000000 -17.150774 -0.481203 -4.914423 4.874424 -0.906443 26.346189 -3.113295 0.175456 -17.480793 0.000000 0.000000 0.000000 8.218084 -0.585215 6.534603 -5.913790 2.220274 -23.756644 -2.831267 -0.581102 22.987199 7.221200 -3.296153 -19.250940 0.000000 0.000000 0.000000 -11.272902 -18.915540 7.510854 -59.111605 -17.474086 -0.495988 -10.452708 -18.098756 2.378682 0.000000 0.000000 0.000000 16.355482 5.678617 2.588163 63.481873 15.055392 -0.309701 9.380840 21.495861 2.646355 0.000000 0.000000 0.000000 
-0.001064 0.827866 0.006853 -2.885590 3.724888 -9.262004 23.307325 -0.010235 -1.786078 -4.370155 0.176683 24.590810 6.597258 8.793276 -15.263527 0.000000 0.000000 0.000000 -17.734735 -0.448011 -3.447513 4.432158 -0.705900 24.438850 -2.592363 2.744637 -17.786731 0.000000 0.000000 0.000000 9.131275 -0.665504 6.922669 -7.119358 2.504515 -24.124352 -2.665383 -1.132825 22.628776 6.012468 -2.586030 -19.017919 0.000000 0.000000 0.000000 -9.657763 -19.750055 7.751971 -60.725158 -18.912377 0.429776 -9.766841 -18.642797 2.353493 0.000000 0.000000 0.000000 14.684049 6.785056 2.969056 64.781674 15.360469 0.039283 8.635494 20.445011 2.338589 0.000000 0.000000 0.000000 
-0.000775 0.828710 0.008301 -2.595257 3.906880 -9.483519 22.514726 -0.079333 -1.154106 -4.004366 0.058027 24.127061 6.571234 8.810419 -14.913728 0.000000 0.000000 0.000000 -18.205046 -0.466268 -3.049352 4.954523 -0.885241 23.984949 -2.826781 0.851260 -16.760705 0.000000 0.000000 0.000000 9.157770 -0.701670 7.230240 -6.867019 2.461564 -23.827389 -3.249135 -0.393537 22.539670 6.302564 -2.600166 -19.222404 0.000000 0.000000 0.000000 -9.326430 -20.568840 7.916106 -59.874296 -20.427851 1.189166 -11.474730 -21.130383 2.990458 0.000000 0.000000 0.000000 15.129841 6.759492 3.133361 62.963857 15.518986 0.054437 8.845670 21.601536 2.546801 0.000000 0.000000 0.000000 
-0.000651 0.829168 0.009442 -2.664811 3.918818 -9.253835 22.491727 -0.170638 -0.441489 -4.131450 0.132957 22.905578 6.535079 8.445256 -15.494558 0.000000 0.000000 0.000000 -18.093702 -0.451899 -3.054282 4.843971 -0.854006 24.105651 -2.866234 0.884426 -17.053337 0.000000 0.000000 0.000000 9.626757 -0.757598 7.415555 -6.996484 2.466410 -24.305139 -3.325702 -0.392862 22.315326 6.466552 -2.647978 -19.576301 0.000000 0.000000 0.000000 -9.325281 -21.480723 8.293602 -60.398265 -21.149226 1.663758 -10.677053 -21.754095 2.928358 0.000000 0.000000 0.000000 15.766189 7.678405 3.616752 61.195975 16.560383 0.518840 8.245161 20.409910 2.246557 0.000000 0.000000 0.000000 
